<?xml version="1.0" encoding="UTF-8" standalone="no"?>
<svg xmlns="http://www.w3.org/2000/svg" height="32" width="32" version="1.1" viewBox="0 0 32 32"><path d="m8 2c-1.108 0-2 0.892-2 2v2.945c0 1.108 0.892 2 2 2s2-0.892 2-2v-2.945c0-1.108-0.892-2-2-2zm16 0c-1.108 0-2 0.892-2 2v2.945c0 1.108 0.892 2 2 2s2-0.892 2-2v-2.945c0-1.108-0.892-2-2-2zm-13 4v0.9453c0 1.662-1.338 3-3 3s-3-1.338-3-3v-0.8203c-1.728 0.4425-3 2.005-3 3.875v16c0 2.216 1.784 4 4 4h20c2.216 0 4-1.784 4-4v-16c0-1.87-1.272-3.432-3-3.875v0.8203c0 1.662-1.338 3-3 3s-3-1.338-3-3v-0.9453h-10zm-5.906 7.055h21.81c0.0554 0 0.09375 0.03835 0.09375 0.09375v13.76c0 0.0554-0.03845 0.09375-0.09375 0.09375h-21.81c-0.0554 0-0.09375-0.03835-0.09375-0.09375v-13.76c0-0.0554 0.03845-0.09375 0.09375-0.09375zm2.906 1.945v2h4v-2h-4zm6 0v2h4v-2h-4zm6 0v2h4v-2h-4zm-12 4v2h4v-2h-4zm6 0v2h4v-2h-4zm6 0v2h4v-2h-4zm-12 4v2h4v-2h-4zm6 0v2h4v-2h-4z" fill="#FFF"/></svg>
