<svg version="1.1" width="16" height="16" viewBox="0 0 16 16" xmlns="http://www.w3.org/2000/svg">
 <path d="m8.0038 1c-1.0442 0-1.9526 0.6593-2.3242 1.5796-1.5894 0.83931-2.6816 2.5089-2.6816 4.4206v2.7668l-0.89257 1.7866a1.0001 0.99981 0 0 0 0.89257 1.4469h2.6367c0.33795 0.98204 1.279 1.6968 2.3691 1.6968 1.0902 0 2.0272-0.71472 2.3633-1.6968h2.6348a1.0001 0.99981 0 0 0 0.89257-1.4469l-0.89257-1.7866v-2.7668c0-1.9151-1.0917-3.5867-2.6836-4.4245-0.37061-0.91815-1.2718-1.5757-2.3145-1.5757zm-0.078124 3.005c0.025928-6.443e-4 0.052051 0 0.078128 0 1.6687 8e-7 2.9961 1.327 2.9961 2.9952v3.003a1.0001 0.99981 0 0 0 0.10352 0.44323l0.28124 0.55258h-6.7616l0.27344-0.55258a1.0001 0.99981 0 0 0 0.10352-0.44323v-3.003c0-1.6421 1.2936-2.9546 2.9258-2.9952z"/>
</svg>
