<svg version="1.1" width="16" height="16" viewBox="0 0 16 16" xmlns="http://www.w3.org/2000/svg">
    <path d="m3.785 1c-0.5144 0-0.9277 0.4133-0.9277 0.9277v1.367c0 0.5144 0.4133 0.9297 0.9277 0.9297 0.5144 0 0.9297-0.4153 0.9297-0.9297v-1.367c0-0.5144-0.4153-0.9277-0.9297-0.9277zm7.43 0c-0.5144 0-0.9297 0.4133-0.9297 0.9277v1.367c0 0.5144 0.4153 0.9297 0.9297 0.9297 0.5144 0 0.9277-0.4153 0.9277-0.9297v-1.367c0-0.5144-0.4133-0.9277-0.9277-0.9277zm-6.037 1.857v0.4395c0 0.7716-0.6209 1.393-1.393 1.393-0.7716 0-1.393-0.6209-1.393-1.393v-0.3809c-0.8023 0.2054-1.393 0.9306-1.393 1.799v7.428c0 1.029 0.8286 1.857 1.857 1.857h5.527c0.7035 0.6142 1.612 1 2.615 1 2.203 0 4-1.797 4-4 0-1.003-0.3858-1.912-1-2.615v-3.67c0-0.8682-0.5903-1.593-1.393-1.799v0.3809c0 0.7716-0.6209 1.393-1.393 1.393s-1.393-0.6209-1.393-1.393v-0.4395h-4.645zm-2.742 3.275h10.13c0.02572 0 0.04297 0.01725 0.04297 0.04297v1.166c-0.4924-0.2174-1.034-0.3418-1.605-0.3418-2.203 1e-7 -4 1.797-4 4 0 0.5722 0.1257 1.114 0.3438 1.607h-4.908c-0.02572 0-0.04297-0.01726-0.04297-0.04297v-6.389c0-0.02572 0.01729-0.04297 0.04297-0.04297zm8.564 1.918c1.635 0 2.949 1.314 2.949 2.949 0 1.635-1.314 2.949-2.949 2.949-1.635 0-2.949-1.314-2.949-2.949 3e-7 -1.635 1.314-2.949 2.949-2.949zm-0.5 0.6816v2.576l2.277 1.139 0.4453-0.8945-1.723-0.8613v-1.959h-1z"/>
</svg>