<svg version="1.1" width="16" height="16" viewBox="0 0 16 16"  xmlns="http://www.w3.org/2000/svg">
 <path d="m4 0.55c-0.5 0-1 0.5-1 1v2c0 0.5 0.5 1 1 1s1-0.5 1-1v-2c0-0.5-0.5-1-1-1zm8 0c-0.5 0-1 0.5-1 1v2c0 0.5 0.5 1 1 1s1-0.5 1-1v-2c0-0.5-0.5-1-1-1zm-6.5 2v1c0 0.831-0.5 1.5-1.5 1.5s-1.5-0.5-1.5-1.5v-0.9375c-0.8841 0.227-1.5 1.025-1.5 1.938v8.45c0 1.108 0.892 2 2 2h10c1.108 0 2-0.892 2-2v-8.45c0-0.9128-0.6159-1.71-1.5-1.938v0.9375c0 0.831-0.5 1.5-1.5 1.5s-1.5-0.5-1.5-1.5v-1zm8 3.95v6.5h-11v-6.5z"/>
</svg>
