<?xml version="1.0" encoding="UTF-8"?>
<svg width="16" height="16" version="1.1" viewBox="0 0 16 16" xmlns="http://www.w3.org/2000/svg">
 <path d="m2 2c-0.554 0-1 0.446-1 1v8c0 0.554 0.446 1 1 1h5v1h-2v2h6v-2h-2v-1h5c0.554 0 1-0.446 1-1v-8c0-0.554-0.446-1-1-1zm1 2h10v6h-10zm5 0.499c-0.8433 0-1.443 0.6007-1.455 1.287v0.8027h-0.5449v2.41h4v-2.41h-0.5449v-0.8027c0-0.7296-0.6551-1.279-1.455-1.287zm0 0.6445c0.4545 0 0.7266 0.3093 0.7266 0.6426v0.8027h-1.453v-0.8027c0-0.3774 0.2709-0.6426 0.7266-0.6426z"/>
</svg>
