<svg version="1.1" width="16" height="16" viewBox="0 0 16 16" xmlns="http://www.w3.org/2000/svg"><path d="m2.832 1.1855-2.8145 2.8145 2.8145 2.8145 1.3418-1.3457-0.44531-0.44531c1.3579 0.013824 2.0243 0.28927 2.5039 0.98438 0.16938-0.59786 0.43211-1.2174 0.8457-1.8086-1.0565-0.87083-2.3948-1.0364-3.4863-1.0859l0.58203-0.58203zm10.955 0.61523c-0.88053 0-1.6132 0.55153-1.9629 1.3066-7.1994 0.72637-2.5041 7.6072-7.7031 7.875-0.37435-0.68571-1.0673-1.1816-1.8965-1.1816-1.2057 0-2.1992 0.99351-2.1992 2.1992 0 1.2057 0.9935 2.1992 2.1992 2.1992 0.88109 0 1.6154-0.55267 1.9648-1.3086 7.0918-0.63687 2.5302-7.6316 7.7031-7.8711 0.37456 0.68498 1.0659 1.1797 1.8945 1.1797 1.2057 0 2.2012-0.99351 2.2012-2.1992 0-1.2057-0.99541-2.1992-2.2012-2.1992zm-0.60547 7.3848-1.3438 1.3457 0.44531 0.44531c-1.377-0.020562-2.0323-0.298-2.5234-1.0059-0.16902 0.60057-0.42864 1.2248-0.83594 1.8203 1.129 0.92572 2.3598 1.0453 3.4883 1.1035l-0.57422 0.57422 1.3438 1.3457 2.8145-2.8145z"/></svg>